<mxfile host="Electron" agent="Mozilla/5.0 (Windows NT 10.0; Win64; x64) AppleWebKit/537.36 (KHTML, like Gecko) draw.io/24.7.5 Chrome/126.0.6478.183 Electron/31.3.0 Safari/537.36" version="24.7.5">
  <diagram id="C5RBs43oDa-KdzZeNtuy" name="Page-1">
    <mxGraphModel dx="1290" dy="621" grid="1" gridSize="10" guides="1" tooltips="1" connect="1" arrows="1" fold="1" page="1" pageScale="1" pageWidth="827" pageHeight="1169" math="0" shadow="0">
      <root>
        <mxCell id="WIyWlLk6GJQsqaUBKTNV-0" />
        <mxCell id="WIyWlLk6GJQsqaUBKTNV-1" parent="WIyWlLk6GJQsqaUBKTNV-0" />
        <mxCell id="1ak7zl65SpvDr4yCtHpQ-0" value="PetAdoption" style="swimlane;fontStyle=1;align=center;verticalAlign=top;childLayout=stackLayout;horizontal=1;startSize=26;horizontalStack=0;resizeParent=1;resizeParentMax=0;resizeLast=0;collapsible=1;marginBottom=0;whiteSpace=wrap;html=1;" parent="WIyWlLk6GJQsqaUBKTNV-1" vertex="1">
          <mxGeometry x="80" y="60" width="530" height="450" as="geometry">
            <mxRectangle x="330" y="250" width="110" height="30" as="alternateBounds" />
          </mxGeometry>
        </mxCell>
        <mxCell id="1ak7zl65SpvDr4yCtHpQ-1" value="- adoptionId: int&lt;div&gt;- userId: int&lt;/div&gt;&lt;div&gt;- categoryId: int&lt;/div&gt;&lt;div&gt;- subcategoryId: int&lt;/div&gt;&lt;div&gt;- name: string&lt;/div&gt;&lt;div&gt;- imageUrl: string&lt;/div&gt;&lt;div&gt;- age: int&lt;/div&gt;&lt;div&gt;- location: string&lt;/div&gt;&lt;div&gt;- reason: string&lt;/div&gt;&lt;div&gt;- health: string&lt;/div&gt;&lt;div&gt;- latestHealthCheck: date-time&lt;/div&gt;&lt;div&gt;- vaccination: string&lt;/div&gt;&lt;div&gt;- careNeeds: string&lt;/div&gt;&lt;div&gt;- dietaryNeeds: string&lt;/div&gt;&lt;div&gt;- behavior: string&lt;/div&gt;&lt;div&gt;- neutereOrSpayed: int&lt;/div&gt;&lt;div&gt;- notes: string&lt;/div&gt;&lt;div&gt;- status: int&lt;/div&gt;&lt;div&gt;- gender: int&lt;/div&gt;&lt;div&gt;- appendixUrl: string&lt;/div&gt;" style="text;strokeColor=none;fillColor=none;align=left;verticalAlign=top;spacingLeft=4;spacingRight=4;overflow=hidden;rotatable=0;points=[[0,0.5],[1,0.5]];portConstraint=eastwest;whiteSpace=wrap;html=1;" parent="1ak7zl65SpvDr4yCtHpQ-0" vertex="1">
          <mxGeometry y="26" width="530" height="294" as="geometry" />
        </mxCell>
        <mxCell id="1ak7zl65SpvDr4yCtHpQ-2" value="" style="line;strokeWidth=1;fillColor=none;align=left;verticalAlign=middle;spacingTop=-1;spacingLeft=3;spacingRight=3;rotatable=0;labelPosition=right;points=[];portConstraint=eastwest;strokeColor=inherit;" parent="1ak7zl65SpvDr4yCtHpQ-0" vertex="1">
          <mxGeometry y="320" width="530" height="8" as="geometry" />
        </mxCell>
        <mxCell id="1ak7zl65SpvDr4yCtHpQ-3" value="&lt;span class=&quot;hljs-string&quot;&gt;+&lt;/span&gt; &lt;span class=&quot;hljs-string&quot;&gt;GET&lt;/span&gt; &lt;span class=&quot;hljs-string&quot;&gt;/api/pet-adoption: Task&amp;lt;ActionResult&amp;lt;IEnumerable&amp;lt;PetAdoption&amp;gt;&amp;gt;&amp;gt;&lt;/span&gt;&lt;div&gt;&lt;span class=&quot;hljs-string&quot;&gt;&lt;span class=&quot;hljs-string&quot;&gt;+&lt;/span&gt; &lt;span class=&quot;hljs-string&quot;&gt;POST&lt;/span&gt; &lt;span class=&quot;hljs-string&quot;&gt;/api/pet-adoption{[FromBody] PetAdoption petAdoption}&lt;/span&gt;&lt;span class=&quot;hljs-string&quot;&gt;:&lt;/span&gt;&amp;nbsp;Task&amp;lt;IActionResult&amp;gt;&lt;br&gt;&lt;/span&gt;&lt;/div&gt;&lt;div&gt;&lt;span class=&quot;hljs-string&quot;&gt;&lt;span class=&quot;hljs-string&quot;&gt;&lt;span class=&quot;hljs-string&quot;&gt;+&lt;/span&gt; &lt;span class=&quot;hljs-string&quot;&gt;GET&lt;/span&gt; &lt;span class=&quot;hljs-string&quot;&gt;/api/pet-adoption/{id: int} &lt;/span&gt;&lt;/span&gt;&lt;/span&gt;&lt;span style=&quot;background-color: initial;&quot; class=&quot;hljs-string&quot;&gt;:&lt;/span&gt;&lt;span style=&quot;background-color: initial;&quot;&gt; &lt;/span&gt;&lt;span style=&quot;background-color: initial;&quot; class=&quot;hljs-string&quot;&gt;Task&amp;lt;ActionResult&amp;lt;PetAdoption&amp;gt;&amp;gt;&lt;/span&gt;&lt;/div&gt;&lt;div&gt;&lt;span class=&quot;hljs-string&quot;&gt;&lt;span class=&quot;hljs-string&quot;&gt;+&lt;/span&gt; &lt;span class=&quot;hljs-string&quot;&gt;DELETE&lt;/span&gt; &lt;span class=&quot;hljs-string&quot;&gt;/api/pet-adoption/{id:int}&lt;/span&gt;&lt;span class=&quot;hljs-string&quot;&gt;:&lt;/span&gt;&amp;nbsp;&lt;span style=&quot;background-color: initial;&quot;&gt;Task&amp;lt;ActionResult&amp;lt;PetAdoption&amp;gt;&amp;gt;&lt;/span&gt;&lt;br&gt;&lt;/span&gt;&lt;/div&gt;&lt;div&gt;&lt;span class=&quot;hljs-string&quot;&gt;&lt;span class=&quot;hljs-string&quot;&gt;&lt;span class=&quot;hljs-string&quot;&gt;+&lt;/span&gt; &lt;span class=&quot;hljs-string&quot;&gt;PUT&lt;/span&gt; &lt;span class=&quot;hljs-string&quot;&gt;/api/pet-adoption/{id}(&lt;/span&gt;&lt;span class=&quot;hljs-string&quot;&gt;int id, [FromBody] PetAdoption petAdoption):&lt;/span&gt;&amp;nbsp;&lt;span style=&quot;background-color: initial;&quot;&gt;Task&amp;lt;IActionResult&amp;gt;&lt;/span&gt;&lt;br&gt;&lt;/span&gt;&lt;/span&gt;&lt;/div&gt;&lt;div&gt;&lt;span class=&quot;hljs-string&quot;&gt;&lt;span class=&quot;hljs-string&quot;&gt;&lt;span class=&quot;hljs-string&quot;&gt;&lt;span class=&quot;hljs-string&quot;&gt;+&lt;/span&gt; &lt;span class=&quot;hljs-string&quot;&gt;GET&lt;/span&gt; &lt;span class=&quot;hljs-string&quot;&gt;/api/pet-adoption/ids:&lt;/span&gt;&amp;nbsp;Task&amp;lt;ActionResult&amp;lt;IEnumerable&amp;lt;int&amp;gt;&amp;gt;&amp;gt;&lt;br&gt;&lt;/span&gt;&lt;/span&gt;&lt;/span&gt;&lt;/div&gt;&lt;div&gt;&lt;span class=&quot;hljs-string&quot;&gt;&lt;span class=&quot;hljs-string&quot;&gt;&lt;span class=&quot;hljs-string&quot;&gt;&lt;span class=&quot;hljs-string&quot;&gt;+&lt;/span&gt; &lt;span class=&quot;hljs-string&quot;&gt;GET&lt;/span&gt; &lt;span class=&quot;hljs-string&quot;&gt;/api/pet-adoption/ids/user-{userId}&lt;/span&gt;&lt;span class=&quot;hljs-string&quot;&gt;:&lt;/span&gt; &lt;span class=&quot;hljs-string&quot;&gt;Task&amp;lt;ActionResult&amp;lt;IEnumerable&amp;lt;int&amp;gt;&amp;gt;&amp;gt;&lt;/span&gt;&lt;br&gt;&lt;/span&gt;&lt;/span&gt;&lt;/span&gt;&lt;/div&gt;" style="text;strokeColor=none;fillColor=none;align=left;verticalAlign=top;spacingLeft=4;spacingRight=4;overflow=hidden;rotatable=0;points=[[0,0.5],[1,0.5]];portConstraint=eastwest;whiteSpace=wrap;html=1;" parent="1ak7zl65SpvDr4yCtHpQ-0" vertex="1">
          <mxGeometry y="328" width="530" height="122" as="geometry" />
        </mxCell>
        <mxCell id="_IUZYU7pE2qKw2oOYi1W-4" value="PetAdoptionSearchRequest" style="swimlane;fontStyle=1;align=center;verticalAlign=top;childLayout=stackLayout;horizontal=1;startSize=26;horizontalStack=0;resizeParent=1;resizeParentMax=0;resizeLast=0;collapsible=1;marginBottom=0;whiteSpace=wrap;html=1;" parent="WIyWlLk6GJQsqaUBKTNV-1" vertex="1">
          <mxGeometry x="770" y="190" width="300" height="190" as="geometry" />
        </mxCell>
        <mxCell id="_IUZYU7pE2qKw2oOYi1W-5" value="- adoptionId: int&lt;br&gt;- name: &lt;span class=&quot;hljs-built_in&quot;&gt;string&lt;/span&gt;&amp;nbsp;&lt;br&gt;- location: &lt;span class=&quot;hljs-built_in&quot;&gt;string&lt;/span&gt; (nullable)&lt;br&gt;- reason: &lt;span class=&quot;hljs-built_in&quot;&gt;string&lt;/span&gt; (nullable)&lt;br&gt;- health: &lt;span class=&quot;hljs-built_in&quot;&gt;string&lt;/span&gt; (nullable)&lt;br&gt;- vaccination: &lt;span class=&quot;hljs-built_in&quot;&gt;string&lt;/span&gt; (nullable)&lt;br&gt;- careNeeds: &lt;span class=&quot;hljs-built_in&quot;&gt;string&lt;/span&gt; (nullable)&lt;br&gt;- dietaryNeeds: &lt;span class=&quot;hljs-built_in&quot;&gt;string&lt;/span&gt; (nullable)&lt;br&gt;- behavior: &lt;span class=&quot;hljs-built_in&quot;&gt;string&lt;/span&gt; (nullable)&lt;br&gt;- notes: &lt;span class=&quot;hljs-built_in&quot;&gt;string&lt;/span&gt; (nullable)" style="text;strokeColor=none;fillColor=none;align=left;verticalAlign=top;spacingLeft=4;spacingRight=4;overflow=hidden;rotatable=0;points=[[0,0.5],[1,0.5]];portConstraint=eastwest;whiteSpace=wrap;html=1;" parent="_IUZYU7pE2qKw2oOYi1W-4" vertex="1">
          <mxGeometry y="26" width="300" height="164" as="geometry" />
        </mxCell>
        <mxCell id="_IUZYU7pE2qKw2oOYi1W-8" value="User" style="swimlane;fontStyle=0;childLayout=stackLayout;horizontal=1;startSize=26;fillColor=none;horizontalStack=0;resizeParent=1;resizeParentMax=0;resizeLast=0;collapsible=1;marginBottom=0;whiteSpace=wrap;html=1;" parent="WIyWlLk6GJQsqaUBKTNV-1" vertex="1">
          <mxGeometry x="80" y="630" width="140" height="78" as="geometry" />
        </mxCell>
        <mxCell id="_IUZYU7pE2qKw2oOYi1W-9" value="- userId: int" style="text;strokeColor=none;fillColor=none;align=left;verticalAlign=top;spacingLeft=4;spacingRight=4;overflow=hidden;rotatable=0;points=[[0,0.5],[1,0.5]];portConstraint=eastwest;whiteSpace=wrap;html=1;" parent="_IUZYU7pE2qKw2oOYi1W-8" vertex="1">
          <mxGeometry y="26" width="140" height="26" as="geometry" />
        </mxCell>
        <mxCell id="_IUZYU7pE2qKw2oOYi1W-10" value="- name: string" style="text;strokeColor=none;fillColor=none;align=left;verticalAlign=top;spacingLeft=4;spacingRight=4;overflow=hidden;rotatable=0;points=[[0,0.5],[1,0.5]];portConstraint=eastwest;whiteSpace=wrap;html=1;" parent="_IUZYU7pE2qKw2oOYi1W-8" vertex="1">
          <mxGeometry y="52" width="140" height="26" as="geometry" />
        </mxCell>
        <mxCell id="_IUZYU7pE2qKw2oOYi1W-12" value="PetCategory" style="swimlane;fontStyle=0;childLayout=stackLayout;horizontal=1;startSize=26;fillColor=none;horizontalStack=0;resizeParent=1;resizeParentMax=0;resizeLast=0;collapsible=1;marginBottom=0;whiteSpace=wrap;html=1;" parent="WIyWlLk6GJQsqaUBKTNV-1" vertex="1">
          <mxGeometry x="430" y="630" width="140" height="78" as="geometry" />
        </mxCell>
        <mxCell id="_IUZYU7pE2qKw2oOYi1W-13" value="- categoryId: int" style="text;strokeColor=none;fillColor=none;align=left;verticalAlign=top;spacingLeft=4;spacingRight=4;overflow=hidden;rotatable=0;points=[[0,0.5],[1,0.5]];portConstraint=eastwest;whiteSpace=wrap;html=1;" parent="_IUZYU7pE2qKw2oOYi1W-12" vertex="1">
          <mxGeometry y="26" width="140" height="26" as="geometry" />
        </mxCell>
        <mxCell id="_IUZYU7pE2qKw2oOYi1W-14" value="- name: string" style="text;strokeColor=none;fillColor=none;align=left;verticalAlign=top;spacingLeft=4;spacingRight=4;overflow=hidden;rotatable=0;points=[[0,0.5],[1,0.5]];portConstraint=eastwest;whiteSpace=wrap;html=1;" parent="_IUZYU7pE2qKw2oOYi1W-12" vertex="1">
          <mxGeometry y="52" width="140" height="26" as="geometry" />
        </mxCell>
        <mxCell id="_IUZYU7pE2qKw2oOYi1W-15" value="PetSubcategory" style="swimlane;fontStyle=0;childLayout=stackLayout;horizontal=1;startSize=26;fillColor=none;horizontalStack=0;resizeParent=1;resizeParentMax=0;resizeLast=0;collapsible=1;marginBottom=0;whiteSpace=wrap;html=1;" parent="WIyWlLk6GJQsqaUBKTNV-1" vertex="1">
          <mxGeometry x="260" y="630" width="140" height="78" as="geometry" />
        </mxCell>
        <mxCell id="_IUZYU7pE2qKw2oOYi1W-16" value="- subcategoryId: int" style="text;strokeColor=none;fillColor=none;align=left;verticalAlign=top;spacingLeft=4;spacingRight=4;overflow=hidden;rotatable=0;points=[[0,0.5],[1,0.5]];portConstraint=eastwest;whiteSpace=wrap;html=1;" parent="_IUZYU7pE2qKw2oOYi1W-15" vertex="1">
          <mxGeometry y="26" width="140" height="26" as="geometry" />
        </mxCell>
        <mxCell id="_IUZYU7pE2qKw2oOYi1W-17" value="- name: string" style="text;strokeColor=none;fillColor=none;align=left;verticalAlign=top;spacingLeft=4;spacingRight=4;overflow=hidden;rotatable=0;points=[[0,0.5],[1,0.5]];portConstraint=eastwest;whiteSpace=wrap;html=1;" parent="_IUZYU7pE2qKw2oOYi1W-15" vertex="1">
          <mxGeometry y="52" width="140" height="26" as="geometry" />
        </mxCell>
        <mxCell id="_IUZYU7pE2qKw2oOYi1W-18" value="Use" style="endArrow=open;endSize=12;dashed=1;html=1;rounded=0;entryX=0.989;entryY=0.682;entryDx=0;entryDy=0;entryPerimeter=0;exitX=0;exitY=0.429;exitDx=0;exitDy=0;exitPerimeter=0;" parent="WIyWlLk6GJQsqaUBKTNV-1" source="_IUZYU7pE2qKw2oOYi1W-5" target="1ak7zl65SpvDr4yCtHpQ-1" edge="1">
          <mxGeometry x="0.0685" y="-16" width="160" relative="1" as="geometry">
            <mxPoint x="648" y="286" as="sourcePoint" />
            <mxPoint x="740" y="250" as="targetPoint" />
            <mxPoint x="1" as="offset" />
          </mxGeometry>
        </mxCell>
        <mxCell id="_IUZYU7pE2qKw2oOYi1W-23" value="" style="endArrow=block;endFill=1;html=1;edgeStyle=orthogonalEdgeStyle;align=left;verticalAlign=top;rounded=0;entryX=0.5;entryY=0;entryDx=0;entryDy=0;" parent="WIyWlLk6GJQsqaUBKTNV-1" target="_IUZYU7pE2qKw2oOYi1W-8" edge="1">
          <mxGeometry x="-1" relative="1" as="geometry">
            <mxPoint x="364" y="510" as="sourcePoint" />
            <mxPoint x="750" y="470" as="targetPoint" />
            <Array as="points">
              <mxPoint x="320" y="510" />
              <mxPoint x="320" y="560" />
              <mxPoint x="150" y="560" />
            </Array>
          </mxGeometry>
        </mxCell>
        <mxCell id="_IUZYU7pE2qKw2oOYi1W-25" value="" style="endArrow=block;endFill=1;html=1;edgeStyle=orthogonalEdgeStyle;align=left;verticalAlign=top;rounded=0;entryX=0.5;entryY=0;entryDx=0;entryDy=0;" parent="WIyWlLk6GJQsqaUBKTNV-1" target="_IUZYU7pE2qKw2oOYi1W-12" edge="1">
          <mxGeometry x="-0.6487" y="-76" relative="1" as="geometry">
            <mxPoint x="330" y="510" as="sourcePoint" />
            <mxPoint x="800" y="510" as="targetPoint" />
            <Array as="points">
              <mxPoint x="320" y="510" />
              <mxPoint x="320" y="560" />
              <mxPoint x="500" y="560" />
            </Array>
            <mxPoint x="-70" y="-46" as="offset" />
          </mxGeometry>
        </mxCell>
        <mxCell id="_IUZYU7pE2qKw2oOYi1W-27" value="" style="endArrow=block;endFill=1;html=1;edgeStyle=orthogonalEdgeStyle;align=left;verticalAlign=top;rounded=0;entryX=0.434;entryY=0.025;entryDx=0;entryDy=0;entryPerimeter=0;" parent="WIyWlLk6GJQsqaUBKTNV-1" target="_IUZYU7pE2qKw2oOYi1W-15" edge="1">
          <mxGeometry x="-1" relative="1" as="geometry">
            <mxPoint x="340" y="510" as="sourcePoint" />
            <mxPoint x="590" y="600" as="targetPoint" />
            <Array as="points">
              <mxPoint x="321" y="510" />
            </Array>
          </mxGeometry>
        </mxCell>
      </root>
    </mxGraphModel>
  </diagram>
</mxfile>
